<svg width="259" height="108" viewBox="0 0 259 108" fill="none" xmlns="http://www.w3.org/2000/svg">
<rect width="259" height="108" rx="10" fill="#0F99C4"/>
<path d="M16.4602 53L22.2557 18.0909H30.6932L26.0568 46.1477H40.5795L39.4205 53H16.4602ZM42.3484 53L48.1438 18.0909H72.4847L71.3256 24.9432H55.4222L54.2631 32.1023H68.9222L67.7631 38.9716H53.104L51.9449 46.1477H67.8484L66.6893 53H42.3484ZM74.0277 24.9432L75.1868 18.0909H104.692L103.533 24.9432H92.9481L88.3118 53H79.9936L84.6299 24.9432H74.0277ZM105.072 24.9432L106.231 18.0909H135.737L134.578 24.9432H123.993L119.356 53H111.038L115.674 24.9432H105.072ZM132.622 53L138.418 18.0909H162.758L161.599 24.9432H145.696L144.537 32.1023H159.196L158.037 38.9716H143.378L142.219 46.1477H158.122L156.963 53H132.622ZM160.807 53L166.603 18.0909H181.023C183.637 18.0909 185.818 18.5625 187.568 19.5057C189.318 20.4375 190.563 21.7784 191.301 23.5284C192.04 25.267 192.211 27.3295 191.813 29.7159C191.426 32.125 190.563 34.1761 189.222 35.8693C187.892 37.5511 186.176 38.8352 184.074 39.7216C181.983 40.608 179.608 41.0511 176.949 41.0511H167.83L168.955 34.4034H176.506C177.767 34.4034 178.858 34.2386 179.779 33.9091C180.699 33.5682 181.432 33.0568 181.978 32.375C182.534 31.6818 182.904 30.7955 183.086 29.7159C183.256 28.6364 183.176 27.7443 182.847 27.0398C182.529 26.3239 181.966 25.7898 181.159 25.4375C180.364 25.0739 179.341 24.892 178.091 24.892H173.932L169.245 53H160.807ZM183.103 37.0455L189.154 53H179.949L174.086 37.0455H183.103Z" fill="#E3F7FF"/>
<path d="M139.966 56.0909L134.17 91H127.011L116.494 70.8523H116.256L112.898 91H104.46L110.256 56.0909H117.517L127.949 76.2045H128.239L131.545 56.0909H139.966ZM152.269 56.0909L146.473 91H138.036L143.831 56.0909H152.269ZM185.836 56.0909L180.04 91H172.881L162.364 70.8523H162.126L158.768 91H150.33L156.126 56.0909H163.387L173.819 76.2045H174.109L177.415 56.0909H185.836ZM203.883 56.0909H212.201L208.213 80.2614C207.826 82.5227 206.968 84.4943 205.639 86.1761C204.309 87.858 202.627 89.1648 200.593 90.0966C198.559 91.017 196.304 91.4773 193.826 91.4773C191.656 91.4773 189.741 91.0966 188.082 90.3352C186.423 89.5739 185.196 88.392 184.4 86.7898C183.605 85.1875 183.417 83.1364 183.838 80.6364H192.224C192.11 81.5455 192.15 82.3125 192.343 82.9375C192.548 83.5625 192.894 84.0341 193.383 84.3523C193.883 84.6705 194.525 84.8295 195.309 84.8295C196.127 84.8295 196.843 84.6534 197.457 84.3011C198.082 83.9489 198.599 83.4261 199.008 82.733C199.429 82.0398 199.73 81.1932 199.912 80.1932L203.883 56.0909ZM217.814 91H208.746L226.32 56.0909H237.552L243.535 91H234.467L230.632 64.8864H230.359L217.814 91ZM218.905 77.2614H237.859L236.768 83.6705H217.814L218.905 77.2614Z" fill="#E3F7FF"/>
</svg>
